<?xml version="1.0" encoding="UTF-8"?>
<svg width="12px" height="12px" viewBox="0 0 12 12" version="1.1" xmlns="http://www.w3.org/2000/svg" xmlns:xlink="http://www.w3.org/1999/xlink">
    <!-- Generator: Sketch 59 (86127) - https://sketch.com -->
    <title>画板</title>
    <desc>Created with Sketch.</desc>
    <g id="画板" stroke="none" stroke-width="1" fill="none" fill-rule="evenodd">
        <g id="旋转">
            <rect id="矩形" fill="#FFFFFF" opacity="0" x="0" y="0" width="12" height="12"></rect>
            <g id="刷新" stroke-width="1" fill="#1C2438">
                <path d="M0.60934364,3.15876458 C0.60934364,3.15876458 1.70125487,1.47382717 3.4290186,0.569698818 C5.15676952,-0.334391136 7.28539789,-0.0741171864 8.68140802,0.802574161 C10.0774182,1.67931672 10.5474067,2.41901504 10.5474067,2.41901504 L11.7498854,1.73410112 C11.7498854,1.73410112 11.998739,1.610833 11.998739,1.89849276 L11.998739,6.19993294 C11.998739,6.19993294 11.998739,6.58350061 11.708429,6.44648198 C11.4642229,6.33127981 8.82335584,4.82955458 7.99116802,4.35580196 C7.53417465,4.15196403 7.93567945,3.98636889 7.93567945,3.98636889 L9.09607439,3.32314341 C9.09607439,3.32314341 8.43418042,2.49420758 7.46540928,2.05520254 C6.42842329,1.51492509 5.45759083,1.45085845 4.26840175,1.89981147 C3.49294442,2.19250284 2.57996911,2.94203392 1.92237698,4.04916803 L0.60934364,3.15876458 L0.60934364,3.15876458 L0.60934364,3.15876458 Z M11.3905539,8.84361666 C11.3905539,8.84361666 10.2986427,10.5285797 8.57085337,11.4326568 C6.84308964,12.3367596 4.71449969,12.0765368 3.31847675,11.1998327 C1.92238978,10.3230645 1.45249091,9.58332779 1.45249091,9.58332779 L0.249948191,10.2682417 C0.249948191,10.2682417 0.00114580932,10.3915866 0.00114580932,10.1038501 L0.00114580932,5.80244831 C0.00114580932,5.80244831 0.00114580932,5.41891906 0.291378979,5.55587367 C0.535597856,5.67113986 3.17652892,7.17280107 4.00871675,7.64660489 C4.46571011,7.85044283 4.06421813,8.01598674 4.06421813,8.01598674 L2.90381039,8.67923784 C2.90381039,8.67923784 3.56572996,9.50813527 4.53448831,9.94717871 C5.57143589,10.4874177 6.54222993,10.55151 7.73148303,10.1025442 C8.50688916,9.80984 9.41987725,9.06038572 10.0774182,7.9531876 L11.3905539,8.84361666 L11.3905539,8.84361666 L11.3905539,8.84361666 Z" id="形状" fill-rule="nonzero"></path>
            </g>
        </g>
    </g>
</svg>